<?xml version="1.0" encoding="UTF-8"?>
<svg xmlns="http://www.w3.org/2000/svg" xmlns:xlink="http://www.w3.org/1999/xlink" width="30pt" height="30pt" viewBox="0 0 30 30" version="1.1">
<g id="surface1">
<path style=" stroke:none;fill-rule:nonzero;fill:rgb(0%,0%,0%);fill-opacity:1;" d="M 15 29.53125 C 6.972656 29.53125 0.46875 23.027344 0.46875 15 C 0.46875 6.972656 6.972656 0.46875 15 0.46875 C 23.027344 0.46875 29.53125 6.972656 29.53125 15 C 29.53125 23.027344 23.027344 29.53125 15 29.53125 Z M 16.695312 21.117188 L 12.269531 16.875 L 22.96875 16.875 C 23.75 16.875 24.375 16.25 24.375 15.46875 L 24.375 14.53125 C 24.375 13.75 23.75 13.125 22.96875 13.125 L 12.269531 13.125 L 16.695312 8.882812 C 17.261719 8.335938 17.273438 7.429688 16.714844 6.875 L 16.070312 6.234375 C 15.519531 5.683594 14.628906 5.683594 14.085938 6.234375 L 6.3125 14.003906 C 5.757812 14.554688 5.757812 15.445312 6.3125 15.988281 L 14.085938 23.765625 C 14.636719 24.316406 15.527344 24.316406 16.070312 23.765625 L 16.714844 23.125 C 17.273438 22.570312 17.261719 21.664062 16.695312 21.117188 Z M 16.695312 21.117188 "/>
</g>
</svg>
