<?xml version="1.0" encoding="UTF-8"?>
<svg xmlns="http://www.w3.org/2000/svg" xmlns:xlink="http://www.w3.org/1999/xlink" width="30pt" height="30pt" viewBox="0 0 30 30" version="1.1">
<g id="surface1">
<path style=" stroke:none;fill-rule:nonzero;fill:rgb(0%,0%,0%);fill-opacity:1;" d="M 15 0.46875 C 23.027344 0.46875 29.53125 6.972656 29.53125 15 C 29.53125 23.027344 23.027344 29.53125 15 29.53125 C 6.972656 29.53125 0.46875 23.027344 0.46875 15 C 0.46875 6.972656 6.972656 0.46875 15 0.46875 Z M 13.304688 8.882812 L 17.730469 13.125 L 7.03125 13.125 C 6.25 13.125 5.625 13.75 5.625 14.53125 L 5.625 15.46875 C 5.625 16.25 6.25 16.875 7.03125 16.875 L 17.730469 16.875 L 13.308594 21.117188 C 12.738281 21.664062 12.726562 22.570312 13.285156 23.125 L 13.929688 23.765625 C 14.480469 24.316406 15.367188 24.316406 15.914062 23.765625 L 23.6875 15.996094 C 24.242188 15.445312 24.242188 14.554688 23.6875 14.007812 L 15.914062 6.226562 C 15.363281 5.675781 14.472656 5.675781 13.929688 6.226562 L 13.285156 6.867188 C 12.726562 7.429688 12.738281 8.335938 13.308594 8.882812 Z M 13.304688 8.882812 "/>
</g>
</svg>
